<svg width="36" height="36" viewBox="0 0 36 36" fill="none" xmlns="http://www.w3.org/2000/svg">
<path d="M30.6124 0L36 5.38762L33.3062 8.08144L27.9186 2.69381L30.6124 0Z" fill="#DC768B"/>
<path d="M19.5666 11.5246H15.757V19.1439H19.5666V11.5246Z" fill="#DC768B"/>
<path fill-rule="evenodd" clip-rule="evenodd" d="M5.02116 30.9788C11.716 37.6737 22.5706 37.6737 29.2655 30.9788C35.9604 24.284 35.9604 13.4294 29.2655 6.73453C22.5706 0.0396494 11.716 0.0396494 5.02116 6.73453C-1.67372 13.4294 -1.67372 24.284 5.02116 30.9788ZM7.71497 28.285C12.9221 33.4922 21.3645 33.4922 26.5717 28.285C31.7788 23.0779 31.7788 14.6355 26.5717 9.42834C21.3645 4.22121 12.9221 4.22121 7.71497 9.42834C2.50784 14.6355 2.50784 23.0779 7.71497 28.285Z" fill="#DC768B"/>
</svg>
