<svg width="36" height="32" viewBox="0 0 36 32" fill="none" xmlns="http://www.w3.org/2000/svg">
<path fill-rule="evenodd" clip-rule="evenodd" d="M18.0211 4.64098L16.1512 2.77111C12.4564 -0.923705 6.46593 -0.923705 2.77111 2.77111C-0.923705 6.46593 -0.923705 12.4564 2.77111 16.1512L17.9758 31.3559L17.9789 31.3528L18.0242 31.3981L33.2289 16.1934C36.9237 12.4986 36.9237 6.50814 33.2289 2.81332C29.5341 -0.881497 23.5436 -0.881497 19.8488 2.81332L18.0211 4.64098ZM17.9789 26.4873L26.4703 17.9959L28.966 15.5859L28.9685 15.5884L30.7961 13.7607C33.1474 11.4094 33.1474 7.59732 30.7961 5.24607C28.4449 2.89482 24.6328 2.89482 22.2815 5.24607L18.023 9.50463L18.0105 9.49217L18.0086 9.49402L13.7185 5.20386C11.3672 2.85262 7.55511 2.85262 5.20386 5.20386C2.85262 7.55511 2.85262 11.3672 5.20386 13.7185L9.57222 18.0868L9.57531 18.0838L17.9789 26.4873Z" fill="#DC768B"/>
</svg>
