<svg width="36" height="36" viewBox="0 0 36 36" fill="none" xmlns="http://www.w3.org/2000/svg">
<path fill-rule="evenodd" clip-rule="evenodd" d="M27.2751 24.5863C31.9299 18.6081 31.5095 9.95899 26.0138 4.46325C20.0627 -1.48775 10.4143 -1.48775 4.46325 4.46325C-1.48775 10.4143 -1.48775 20.0627 4.46325 26.0138C9.95899 31.5095 18.6081 31.9299 24.5863 27.2751C24.6121 27.3042 24.639 27.3328 24.6668 27.3607L32.7483 35.4421C33.4922 36.186 34.6982 36.186 35.4421 35.4421C36.186 34.6982 36.186 33.4922 35.4421 32.7483L27.3607 24.6668C27.3328 24.639 27.3042 24.6121 27.2751 24.5863ZM23.3199 7.15707C27.7832 11.6203 27.7832 18.8567 23.3199 23.3199C18.8567 27.7832 11.6203 27.7832 7.15707 23.3199C2.69381 18.8567 2.69381 11.6203 7.15707 7.15707C11.6203 2.69381 18.8567 2.69381 23.3199 7.15707Z" fill="#DC768B"/>
</svg>
