<svg width="36" height="36" viewBox="0 0 36 36" fill="none" xmlns="http://www.w3.org/2000/svg">
<path d="M17.9999 0C8.05904 0 0 8.05902 0 18.0001C0 27.9416 8.05904 36 17.9999 36C27.9418 36 36 27.9416 36 18.0001C36 8.05966 27.9418 0.000859784 17.9997 0.000859784L17.9999 0ZM26.2545 25.9613C25.9321 26.4901 25.24 26.6578 24.7112 26.3332C20.4851 23.7517 15.1648 23.167 8.89925 24.5986C8.29547 24.7361 7.69364 24.3578 7.55607 23.7538C7.41787 23.1498 7.79466 22.548 8.39994 22.4104C15.2566 20.8432 21.138 21.5184 25.8827 24.418C26.4114 24.7426 26.5791 25.4326 26.2545 25.9613ZM28.4577 21.0595C28.0514 21.7204 27.1874 21.9289 26.5275 21.5227C21.6892 18.548 14.3139 17.6867 8.59102 19.4239C7.84882 19.6481 7.06493 19.2298 6.83967 18.4889C6.61613 17.7467 7.03462 16.9643 7.77553 16.7386C14.3126 14.7551 22.4393 15.7159 27.9956 19.1303C28.6554 19.5366 28.8639 20.4004 28.4577 21.0595ZM28.6468 15.9557C22.8455 12.5099 13.2742 12.1931 7.73533 13.8742C6.8459 14.144 5.90532 13.6418 5.63578 12.7524C5.36624 11.8625 5.86792 10.9225 6.75799 10.6521C13.1162 8.72191 23.686 9.09485 30.3651 13.06C31.1668 13.5348 31.429 14.568 30.954 15.367C30.4811 16.167 29.4451 16.4308 28.6477 15.9557H28.6468Z" fill="#DC768B"/>
</svg>
