<svg width="31" height="32" viewBox="0 0 31 32" fill="none" xmlns="http://www.w3.org/2000/svg">
<path d="M12.3077 16C12.3077 16.8837 11.6189 17.6 10.7692 17.6C9.91956 17.6 9.23077 16.8837 9.23077 16C9.23077 15.1163 9.91956 14.4 10.7692 14.4C11.6189 14.4 12.3077 15.1163 12.3077 16Z" fill="#DC768B"/>
<path d="M20 17.6C20.8497 17.6 21.5385 16.8837 21.5385 16C21.5385 15.1163 20.8497 14.4 20 14.4C19.1503 14.4 18.4615 15.1163 18.4615 16C18.4615 16.8837 19.1503 17.6 20 17.6Z" fill="#DC768B"/>
<path fill-rule="evenodd" clip-rule="evenodd" d="M15.4221 4.65538e-05L15.3846 0C6.88793 0 0 7.16344 0 16C0 24.8366 6.88793 32 15.3846 32C23.8813 32 30.7692 24.8366 30.7692 16C30.7692 7.58775 24.5269 0.691798 16.5969 0.0489419L16.5978 0.0451279C16.2045 0.0142568 15.8123 -0.000626094 15.4221 4.65538e-05ZM15.3846 28.8C22.182 28.8 27.6923 23.0692 27.6923 16C27.6923 14.8822 27.5545 13.7979 27.2957 12.7644C21.7842 13.17 16.5168 10.4394 13.4777 5.76394C11.2511 8.12618 8.15108 9.59466 4.72122 9.60406C3.67541 11.4858 3.07692 13.6702 3.07692 16C3.07692 23.0692 8.58726 28.8 15.3846 28.8ZM15.3515 3.20005L15.421 3.20005L15.3846 3.2L15.3515 3.20005Z" fill="#DC768B"/>
</svg>
